<svg width="16" height="16" viewBox="0 0 16 16" fill="none" xmlns="http://www.w3.org/2000/svg">
<path fill-rule="evenodd" clip-rule="evenodd" d="M3.29711 3.33338C3.30919 3.33338 3.32128 3.33338 3.33338 3.33338L10.6418 3.33338C10.7973 3.33335 10.9558 3.33332 11.0931 3.34612C11.2506 3.36081 11.4267 3.39534 11.6057 3.49115C11.7848 3.58696 11.9112 3.71433 12.0108 3.83725C12.0976 3.94438 12.1855 4.07628 12.2717 4.20566L14.0764 6.91278C14.1831 7.07272 14.2905 7.23374 14.3673 7.38133C14.4551 7.55018 14.5321 7.75376 14.5321 8.00005C14.5321 8.24635 14.4551 8.44992 14.3673 8.61878C14.2905 8.76636 14.1831 8.92738 14.0764 9.08732L12.2717 11.7944C12.1855 11.9238 12.0976 12.0557 12.0108 12.1629C11.9112 12.2858 11.7848 12.4131 11.6057 12.509C11.4267 12.6048 11.2506 12.6393 11.0931 12.654C10.9558 12.6668 10.7973 12.6667 10.6418 12.6667L3.33338 12.6667C3.32128 12.6667 3.30919 12.6667 3.29711 12.6667C3.0144 12.6668 2.73965 12.6668 2.51304 12.6364C2.25757 12.602 1.96605 12.5183 1.72391 12.2762C1.48176 12.034 1.39808 11.7425 1.36374 11.4871C1.33327 11.2605 1.33332 10.9857 1.33338 10.703C1.33338 10.6909 1.33338 10.6788 1.33338 10.6667V5.33338C1.33338 5.32128 1.33338 5.30919 1.33338 5.29711C1.33332 5.0144 1.33327 4.73965 1.36374 4.51304C1.39808 4.25757 1.48176 3.96605 1.72391 3.72391C1.96605 3.48176 2.25757 3.39808 2.51304 3.36374C2.73965 3.33327 3.0144 3.33332 3.29711 3.33338ZM2.68585 4.68585C2.68562 4.68743 2.6854 4.68905 2.68518 4.6907C2.66813 4.8175 2.66672 5.00027 2.66672 5.33338V10.6667C2.66672 10.9998 2.66813 11.1826 2.68518 11.3094C2.6854 11.3111 2.68562 11.3127 2.68585 11.3143C2.68743 11.3145 2.68905 11.3147 2.6907 11.3149C2.8175 11.332 3.00027 11.3334 3.33338 11.3334H10.6198C10.8066 11.3334 10.9016 11.3327 10.9693 11.3264L10.9727 11.3261L10.9748 11.3235C11.0177 11.2706 11.0709 11.192 11.1745 11.0365L12.9523 8.36985C13.0798 8.17853 13.1453 8.07875 13.1844 8.00344L13.1862 8.00005L13.1844 7.99666C13.1453 7.92135 13.0798 7.82157 12.9523 7.63025L11.1745 4.96358C11.0709 4.80812 11.0177 4.7295 10.9748 4.67665L10.9727 4.67402L10.9693 4.6737C10.9016 4.66738 10.8066 4.66672 10.6198 4.66672H3.33338C3.00027 4.66672 2.8175 4.66813 2.6907 4.68518C2.68905 4.6854 2.68743 4.68562 2.68585 4.68585Z" fill="white"/>
<path d="M10.6667 8.00005C10.6667 8.36824 10.3682 8.66672 10.0001 8.66672C9.63186 8.66672 9.33338 8.36824 9.33338 8.00005C9.33338 7.63186 9.63186 7.33338 10.0001 7.33338C10.3682 7.33338 10.6667 7.63186 10.6667 8.00005Z" fill="white"/>
<path fill-rule="evenodd" clip-rule="evenodd" d="M8.66672 8.00005C8.66672 7.26367 9.26367 6.66672 10.0001 6.66672C10.7364 6.66672 11.3334 7.26367 11.3334 8.00005C11.3334 8.73643 10.7364 9.33338 10.0001 9.33338C9.26367 9.33338 8.66672 8.73643 8.66672 8.00005Z" fill="white"/>
</svg>
