<svg width="16" height="16" viewBox="0 0 16 16" fill="none" xmlns="http://www.w3.org/2000/svg">
<path fill-rule="evenodd" clip-rule="evenodd" d="M6.66667 10.6667C6.29848 10.6667 6 10.3682 6 10L6 8.00004C6 7.63185 6.29848 7.33337 6.66667 7.33337C7.03486 7.33337 7.33333 7.63185 7.33333 8.00004L7.33333 10C7.33333 10.3682 7.03486 10.6667 6.66667 10.6667Z" fill="white"/>
<path fill-rule="evenodd" clip-rule="evenodd" d="M9.33333 10.6667C8.96514 10.6667 8.66667 10.3682 8.66667 10V8.00004C8.66667 7.63185 8.96514 7.33337 9.33333 7.33337C9.70152 7.33337 10 7.63185 10 8.00004V10C10 10.3682 9.70152 10.6667 9.33333 10.6667Z" fill="white"/>
<path fill-rule="evenodd" clip-rule="evenodd" d="M2.68416 5.34451C2.52617 5.33373 2.31975 5.33337 2 5.33337V4.00004C2.00713 4.00004 2.01424 4.00004 2.02132 4.00004C2.03564 4.00004 2.04986 4.00004 2.06398 4.00004H13.936C13.9501 4.00004 13.9644 4.00004 13.9787 4.00004L14 4.00004V5.33337C13.6803 5.33337 13.4738 5.33373 13.3158 5.34451C13.1638 5.35489 13.106 5.37263 13.0782 5.38412C12.9149 5.45178 12.7851 5.58157 12.7174 5.74492C12.7059 5.77266 12.6882 5.83055 12.6778 5.98255C12.667 6.14053 12.6667 6.34696 12.6667 6.66671L12.6667 10.7106C12.6667 11.3016 12.6667 11.8108 12.6119 12.2186C12.5532 12.6556 12.4207 13.0745 12.0809 13.4143C11.7411 13.754 11.3222 13.8865 10.8852 13.9453C10.4774 14.0001 9.96821 14.0001 9.37722 14H6.62278C6.03179 14.0001 5.52258 14.0001 5.11481 13.9453C4.67779 13.8865 4.25889 13.754 3.91912 13.4143C3.57934 13.0745 3.44685 12.6556 3.38809 12.2186C3.33327 11.8108 3.3333 11.3016 3.33333 10.7106L3.33333 6.66671C3.33333 6.34696 3.33297 6.14053 3.32219 5.98255C3.31182 5.83055 3.29408 5.77266 3.28259 5.74492C3.21492 5.58157 3.08514 5.45178 2.92179 5.38412C2.89405 5.37263 2.83616 5.35489 2.68416 5.34451ZM11.4485 5.33337H4.55147C4.61399 5.51845 4.6397 5.70513 4.65243 5.89179C4.66668 6.10062 4.66668 6.35295 4.66667 6.64538L4.66667 10.6667C4.66667 11.3141 4.66808 11.7326 4.70954 12.0409C4.74841 12.3301 4.81118 12.4207 4.86193 12.4714C4.91268 12.5222 5.00331 12.585 5.29247 12.6238C5.60081 12.6653 6.01928 12.6667 6.66667 12.6667H9.33333C9.98072 12.6667 10.3992 12.6653 10.7075 12.6238C10.9967 12.585 11.0873 12.5222 11.1381 12.4714C11.1888 12.4207 11.2516 12.3301 11.2905 12.0409C11.3319 11.7326 11.3333 11.3141 11.3333 10.6667V6.64538C11.3333 6.35295 11.3333 6.10062 11.3476 5.89179C11.3603 5.70514 11.386 5.51845 11.4485 5.33337Z" fill="white"/>
<path fill-rule="evenodd" clip-rule="evenodd" d="M8.93728 1.41419C8.65464 1.35997 8.32616 1.33337 8 1.33337C7.67384 1.33337 7.34536 1.35997 7.06272 1.41419C6.92142 1.4413 6.78308 1.4769 6.65776 1.52379C6.54392 1.56638 6.38866 1.63709 6.2573 1.75965C5.98809 2.01083 5.97347 2.43269 6.22465 2.7019C6.46167 2.95593 6.85067 2.98327 7.11997 2.77449C7.12151 2.77389 7.12318 2.77325 7.12499 2.77258C7.16057 2.75927 7.22235 2.74122 7.31392 2.72365C7.49699 2.68853 7.73914 2.66671 8 2.66671C8.26086 2.66671 8.50301 2.68853 8.68608 2.72365C8.77765 2.74122 8.83943 2.75927 8.87501 2.77258C8.87682 2.77325 8.87849 2.77389 8.88003 2.77449C9.14933 2.98327 9.53833 2.95593 9.77535 2.7019C10.0265 2.43269 10.0119 2.01083 9.7427 1.75965C9.61134 1.63709 9.45608 1.56638 9.34224 1.52379C9.21691 1.4769 9.07858 1.4413 8.93728 1.41419Z" fill="white"/>
</svg>
